<svg width="1385" height="632" viewBox="0 0 1385 632" fill="none" xmlns="http://www.w3.org/2000/svg">
<path d="M1409 -150H-30V874H1409V-150Z" fill="#EDF0F7"/>
<path d="M1206.72 349.825C1217.96 349.825 1227.08 340.711 1227.08 329.467C1227.08 318.224 1217.96 309.11 1206.72 309.11C1195.47 309.11 1186.36 318.224 1186.36 329.467C1186.36 340.711 1195.47 349.825 1206.72 349.825Z" fill="url(#paint0_linear)"/>
<path d="M383.428 259.97C386.695 240.152 373.276 221.439 353.457 218.172C333.638 214.906 314.923 228.323 311.656 248.14C308.389 267.958 321.808 286.671 341.627 289.938C361.446 293.204 380.161 279.787 383.428 259.97Z" fill="white"/>
<path d="M564.073 745.027C603.225 745.027 634.964 713.291 634.964 674.143C634.964 634.995 603.225 603.259 564.073 603.259C524.922 603.259 493.183 634.995 493.183 674.143C493.183 713.291 524.922 745.027 564.073 745.027Z" fill="white"/>
<path d="M1254.9 272.549C1254.91 273.782 1254.54 274.987 1253.86 276.013C1253.18 277.038 1252.2 277.838 1251.06 278.31C1249.93 278.783 1248.67 278.907 1247.46 278.667C1246.26 278.427 1245.14 277.834 1244.27 276.962C1243.4 276.091 1242.81 274.98 1242.57 273.772C1242.33 272.563 1242.45 271.31 1242.92 270.171C1243.4 269.033 1244.2 268.061 1245.22 267.377C1246.25 266.694 1247.45 266.33 1248.69 266.332C1250.34 266.332 1251.92 266.987 1253.08 268.153C1254.25 269.319 1254.9 270.9 1254.9 272.549Z" fill="url(#paint1_linear)"/>
<path d="M394.552 307.134C394.552 308.772 394.066 310.374 393.156 311.736C392.245 313.097 390.951 314.159 389.438 314.785C387.924 315.412 386.258 315.575 384.652 315.255C383.045 314.935 381.569 314.145 380.411 312.986C379.254 311.827 378.466 310.35 378.147 308.744C377.829 307.137 377.994 305.471 378.623 303.958C379.251 302.446 380.314 301.153 381.677 300.244C383.04 299.336 384.642 298.852 386.28 298.853C387.368 298.853 388.444 299.068 389.448 299.484C390.452 299.9 391.365 300.51 392.133 301.279C392.901 302.048 393.51 302.961 393.925 303.966C394.34 304.971 394.553 306.047 394.552 307.134Z" fill="white"/>
<path d="M-0.306122 742.361C77.9492 742.361 141.388 678.928 141.388 600.68C141.388 522.432 77.9492 459 -0.306122 459C-78.5615 459 -142 522.432 -142 600.68C-142 678.928 -78.5615 742.361 -0.306122 742.361Z" fill="white"/>
<path d="M23.4435 710.245C88.0634 710.245 140.448 657.866 140.448 593.252C140.448 528.638 88.0634 476.258 23.4435 476.258C-41.1764 476.258 -93.5612 528.638 -93.5612 593.252C-93.5612 657.866 -41.1764 710.245 23.4435 710.245Z" fill="url(#paint2_linear)"/>
<path d="M1048.7 -115.068C981.58 -63.6222 928.657 5.45047 901.653 85.5542C841.765 263.243 929.267 495.971 1118.44 550.71C1295.13 601.836 1497.68 493.782 1529.62 307.483C1547.12 205.521 1560.5 107.151 1665.32 59.2888C1686.71 49.5264 1709.54 42.9503 1730.22 31.7546C1843.42 -29.541 1668.81 -118.274 1618.36 -144.656C1503.94 -204.47 1369.39 -229.95 1241.95 -203.714C1172.11 -189.332 1105.36 -158.466 1048.7 -115.068Z" fill="#FF974F"/>
<path d="M1083.93 -139.209C1018.58 -103.81 963.153 -51.1632 928.681 14.6263C852.231 160.558 896.098 374.565 1052.66 448.103C1198.92 516.807 1389.57 450.94 1443 293.687C1472.22 207.617 1497.38 124.104 1594.94 97.006C1614.84 91.4856 1635.55 88.9094 1654.99 82.0525C1761.72 44.4654 1622.42 -56.5964 1582.28 -86.4646C1491.18 -154.152 1377.99 -194.771 1263.79 -189.551C1200.82 -186.468 1139.35 -169.263 1083.93 -139.209Z" fill="white"/>
<defs>
<linearGradient id="paint0_linear" x1="1192.32" y1="315.076" x2="1221.11" y2="343.862" gradientUnits="userSpaceOnUse">
<stop stop-color="#FF974F"/>
<stop offset="1" stop-color="#FFBB07"/>
</linearGradient>
<linearGradient id="paint1_linear" x1="1244.28" y1="268.152" x2="1253.08" y2="276.947" gradientUnits="userSpaceOnUse">
<stop stop-color="#FF974F"/>
<stop offset="1" stop-color="#FF5652"/>
</linearGradient>
<linearGradient id="paint2_linear" x1="-81679.8" y1="48912.6" x2="-101483" y2="101862" gradientUnits="userSpaceOnUse">
<stop stop-color="#FF974F"/>
<stop offset="1" stop-color="#FFBB07"/>
</linearGradient>
</defs>
</svg>
